<?xml version="1.0" encoding="utf-8"?>
<!-- Generator: Adobe Illustrator 21.0.0, SVG Export Plug-In . SVG Version: 6.00 Build 0)  -->
<svg version="1.1" id="Layer_2" xmlns="http://www.w3.org/2000/svg" xmlns:xlink="http://www.w3.org/1999/xlink" x="0px" y="0px"
	 viewBox="0 0 1134.4 262.4" style="enable-background:new 0 0 1134.4 262.4;" xml:space="preserve">
<style type="text/css">
	.st0{display:none;}
	.st1{fill:#FFFFFF;}
</style>
<path class="st0" d="M123-69.4C54.5-69.4,0-14.9,0,53.6c0,91.3,123,228.4,123,228.4s123-137,123-228.4
	C245.9-14.9,191.5-69.4,123-69.4z M123,97.5c-5.8,0-11.4-1.1-16.4-3.1c0,0-0.3,17.6-0.3,28.7c0,0,0,14.4-13,14.4
	c-13.9,0-14.1-14.4-14.1-14.4L79,53.6C79,29,98.4,9.7,123,9.7s43.9,19.3,43.9,43.9S147.6,97.5,123,97.5z"/>
<path class="st1" d="M21.6,147.2v48.3C21.6,209.3,0,209,0,195.8V23c0-6.3,5.1-10.5,11.1-10.5h65.1c51.9,0,76.2,34.5,76.2,69
	c0,36-24.6,65.7-77.1,65.7H21.6z M21.6,127.7h53.7c39.9,0,56.4-23.4,55.8-46.2C130.8,56.9,111.3,32,76.5,32H21.6V127.7z"/>
<path class="st1" d="M225.9,54.8c9.9-4.5,20.7-6,32.1-5.7c17.1,0.3,36.6,5.7,47.4,23.4V61.1c0-6.3,3.9-10.8,10.8-10.8
	c6.6,0,11.1,4.5,11.1,10.8v133.2c0,6.6-4.5,10.8-11.1,10.8c-6.9,0-10.8-4.2-10.8-10.8v-14.4c-8.7,17.4-30.9,27.3-48.6,27.3
	c-14.4,0-30.6-3.9-43.2-12.9c-22.8-15.6-34.5-41.1-33.6-70.5c0.6-30.3,17.4-58.2,46.2-69.3L225.9,54.8z M305.4,139.7V116
	c0-29.7-20.7-45-47.7-46.2c-21.3-0.3-42.9,11.1-51.3,32.1c-2.7,6.3-4.2,14.4-4.5,22.2c-0.6,19.5,5.7,37.5,21.9,51
	c9,6.9,19.8,10.5,30.9,11.4C282.3,186.5,303.9,169.7,305.4,139.7z"/>
<path class="st1" d="M394.5,75.8c9.6-20.1,27.6-25.5,44.7-25.5c6.9,0,11.4,3.6,11.4,10.5c0,6.6-4.5,10.2-11.4,10.2
	c-30.9,0-44.1,24.6-44.1,54.9v67.8c0,6.3-5.1,10.5-10.8,10.5c-6.6,0-11.1-4.2-11.1-10.5V60.8c0-13.2,21.3-14.4,21.3,0V75.8z"/>
<path class="st1" d="M571.8,52.7c11.7-10.5,27,4.2,15.6,15l-56.1,51.9l61.8,68.1c10.2,12.3-7.8,24.9-17.1,12.9l-61.2-68.7
	l-17.7,15.9v46.8c0,13.5-21.9,14.1-21.9,0V15.2c0-12.3,21.9-12.3,21.9,0v108.3l20.7-20.4L571.8,52.7z"/>
<path class="st1" d="M927.1,115.4c0-27.6-22.2-46.8-46.5-46.8c-29.1,0-56.4,24-56.4,56.7v69.6c0,6.6-3.9,10.5-10.8,10.5
	c-6.9,0-11.4-3.9-11.4-10.5V60.5c0-13.8,21.6-14.1,21.6,0.3v18.6c10.8-21.9,33.9-31.2,57.3-31.2c34.8,0,68.1,24,68.1,67.2v79.5
	c0,6.6-3.9,10.5-10.8,10.5c-6.6,0-11.1-3.9-11.1-10.5V115.4z"/>
<path class="st1" d="M1134.4,196.4c0,43.5-33,66-74.1,66c-22.8,0-41.1-5.4-57.3-20.7c-12-11.7,4.5-25.5,14.7-15.6
	c15,11.4,25.8,15,42.6,15c27.3,0,52.8-13.8,52.8-44.7v-16.2c-10.5,18.9-30,26.1-48,26.4c-11.4,0.3-22.2-1.5-32.4-5.7
	c-27.9-11.4-45-38.7-45.6-69c-0.9-34.8,15.3-64.5,48-78c9.3-3.6,19.2-5.1,28.2-5.1c18.3,0,39.3,6.9,49.2,23.4V60.8
	c0-6.6,3.9-10.8,10.8-10.8c6.6,0,11.1,4.2,11.1,10.8V196.4z M1030.9,80.6h0.3c-16.5,13.5-22.8,31.5-22.2,51
	c0.3,7.8,1.8,15.9,4.5,22.2c8.4,21,30,32.4,51.3,32.1h-0.3c27-1.2,48-20.7,48-46.2V116c0-18.9-7.8-33.3-25.5-41.1
	C1069,66.8,1047.4,68,1030.9,80.6z"/>
<path class="st1" d="M691.3,20C655,20,626.2,48.8,626.2,85c0,48.3,65.1,120.8,65.1,120.8s65.1-72.5,65.1-120.8
	C756.3,48.8,727.5,20,691.3,20z M691.3,108.3c-13,0-23.2-10.2-23.2-23.2s10.2-23.2,23.2-23.2c13,0,23.2,10.2,23.2,23.2
	S704.3,108.3,691.3,108.3z"/>
</svg>
