<?xml version="1.0" encoding="utf-8"?>
<!-- Generator: Adobe Illustrator 21.0.0, SVG Export Plug-In . SVG Version: 6.00 Build 0)  -->
<svg version="1.1" id="Layer_2" xmlns="http://www.w3.org/2000/svg" xmlns:xlink="http://www.w3.org/1999/xlink" x="0px" y="0px"
	 viewBox="0 0 1307.9 351.3" style="enable-background:new 0 0 1307.9 351.3;" xml:space="preserve">
<style type="text/css">
	.st0{display:none;}
	.st1{fill:#FFFFFF;}
</style>
<path class="st0" d="M123,0C54.5,0,0,54.5,0,123c0,91.3,123,228.4,123,228.4s123-137,123-228.4C245.9,54.5,191.5,0,123,0z
	 M123,166.9c-5.8,0-11.4-1.1-16.4-3.1c0,0-0.3,17.6-0.3,28.7c0,0,0,14.4-13,14.4c-13.9,0-14.1-14.4-14.1-14.4L79,123
	C79,98.4,98.4,79,123,79s43.9,19.3,43.9,43.9S147.6,166.9,123,166.9z"/>
<g>
	<path class="st1" d="M300.3,216.6v48.3c0,13.8-21.6,13.5-21.6,0.3V92.4c0-6.3,5.1-10.5,11.1-10.5h65.1c51.9,0,76.2,34.5,76.2,69
		c0,36-24.6,65.7-77.1,65.7H300.3z M300.3,197.1H354c39.9,0,56.4-23.4,55.8-46.2c-0.3-24.6-19.8-49.5-54.6-49.5h-54.9V197.1z"/>
	<path class="st1" d="M504.6,124.2c9.9-4.5,20.7-6,32.1-5.7c17.1,0.3,36.6,5.7,47.4,23.4v-11.4c0-6.3,3.9-10.8,10.8-10.8
		c6.6,0,11.1,4.5,11.1,10.8v133.2c0,6.6-4.5,10.8-11.1,10.8c-6.9,0-10.8-4.2-10.8-10.8v-14.4c-8.7,17.4-30.9,27.3-48.6,27.3
		c-14.4,0-30.6-3.9-43.2-12.9c-22.8-15.6-34.5-41.1-33.6-70.5c0.6-30.3,17.4-58.2,46.2-69.3L504.6,124.2z M584.1,209.1v-23.7
		c0-29.7-20.7-45-47.7-46.2c-21.3-0.3-42.9,11.1-51.3,32.1c-2.7,6.3-4.2,14.4-4.5,22.2c-0.6,19.5,5.7,37.5,21.9,51
		c9,6.9,19.8,10.5,30.9,11.4C561,255.9,582.6,239.1,584.1,209.1z"/>
	<path class="st1" d="M673.2,145.2c9.6-20.1,27.6-25.5,44.7-25.5c6.9,0,11.4,3.6,11.4,10.5c0,6.6-4.5,10.2-11.4,10.2
		c-30.9,0-44.1,24.6-44.1,54.9v67.8c0,6.3-5.1,10.5-10.8,10.5c-6.6,0-11.1-4.2-11.1-10.5V130.2c0-13.2,21.3-14.4,21.3,0V145.2z"/>
	<path class="st1" d="M850.5,122.1c11.7-10.5,27,4.2,15.6,15L810,189l61.8,68.1C882,269.4,864,282,854.7,270l-61.2-68.7l-17.7,15.9
		V264c0,13.5-21.9,14.1-21.9,0V84.6c0-12.3,21.9-12.3,21.9,0v108.3l20.7-20.4L850.5,122.1z"/>
	<path class="st1" d="M927.9,97.8c0,13.5-22.5,13.8-22.5,0V84.3c0-13.8,22.5-13.8,22.5,0V97.8z M905.7,130.2
		c0-12.9,21.9-13.2,21.9-0.3v135.3c0,13.2-21.9,12.9-21.9,0V130.2z"/>
	<path class="st1" d="M1093.8,184.8c0-27.6-22.2-46.8-46.5-46.8c-29.1,0-56.4,24-56.4,56.7v69.6c0,6.6-3.9,10.5-10.8,10.5
		c-6.9,0-11.4-3.9-11.4-10.5V129.9c0-13.8,21.6-14.1,21.6,0.3v18.6c10.8-21.9,33.9-31.2,57.3-31.2c34.8,0,68.1,24,68.1,67.2v79.5
		c0,6.6-3.9,10.5-10.8,10.5c-6.6,0-11.1-3.9-11.1-10.5V184.8z"/>
	<path class="st1" d="M1301.1,265.8c0,43.5-33,66-74.1,66c-22.8,0-41.1-5.4-57.3-20.7c-12-11.7,4.5-25.5,14.7-15.6
		c15,11.4,25.8,15,42.6,15c27.3,0,52.8-13.8,52.8-44.7v-16.2c-10.5,18.9-30,26.1-48,26.4c-11.4,0.3-22.2-1.5-32.4-5.7
		c-27.9-11.4-45-38.7-45.6-69c-0.9-34.8,15.3-64.5,48-78c9.3-3.6,19.2-5.1,28.2-5.1c18.3,0,39.3,6.9,49.2,23.4v-11.4
		c0-6.6,3.9-10.8,10.8-10.8c6.6,0,11.1,4.2,11.1,10.8V265.8z M1197.6,150h0.3c-16.5,13.5-22.8,31.5-22.2,51
		c0.3,7.8,1.8,15.9,4.5,22.2c8.4,21,30,32.4,51.3,32.1h-0.3c27-1.2,48-20.7,48-46.2v-23.7c0-18.9-7.8-33.3-25.5-41.1
		C1235.7,136.2,1214.1,137.4,1197.6,150z"/>
</g>
<path class="st1" d="M123,0C54.5,0,0,54.5,0,123c0,91.3,123,228.4,123,228.4s123-137,123-228.4C245.9,54.5,191.5,0,123,0z
	 M123,166.9C98.4,166.9,79,147.6,79,123S98.4,79,123,79s43.9,19.3,43.9,43.9S147.6,166.9,123,166.9z"/>
</svg>
